<svg class="icon" width="16" height="16" viewBox="0 0 1024 1024" xmlns="http://www.w3.org/2000/svg"><path d="M383.795 413.798h-33.894l-.103.103v-.103h-33.894l-89.088 261.837h66.662l15.77-50.893h81.203l15.872 50.893h66.765l-89.293-261.837zm-60.006 164.25l25.293-81.203h1.126l25.498 81.203h-51.917zM798.31 294.502C745.574 190.26 635.085 114.586 512.82 114.586c-178.177 0-270.03 104.652-309.044 272.896C108.236 396.186 4.301 465.612 0 610.714v16.793c4.096 115.2 101.58 202.957 216.166 207.463 1.434.307 2.868.41 4.301.41h33.178c3.277 1.33 6.86 1.945 10.65 1.945 15.564-.41 27.852-12.8 27.443-27.75-.41-14.439-12.493-25.908-27.444-26.317-2.457 0-4.812.41-7.065 1.024h-27.443c-.922-.103-1.946-.205-2.868-.205-94.515-2.355-170.29-75.981-170.29-166.605 0-115.507 77.209-183.706 172.953-184.73 11.366-.102 20.992-8.09 22.733-18.739 27.75-168.345 120.73-248.422 260.3-248.422 105.984 0 201.319 69.017 242.893 162.099 3.584 7.987 11.469 13.107 20.48 13.517 98.816 3.789 190.874 88.985 190.874 243.814 0 104.55-76.39 190.464-183.194 198.554H536.986l38.4-35.533c10.854-9.933 11.366-26.42.921-36.864l-.921-.922c-11.47-10.444-29.39-10.444-40.858 0l-82.944 76.698c-5.734 5.222-8.704 12.595-8.294 20.173-.103 1.126-.308 2.253-.308 3.481 0 11.47 7.476 21.197 17.92 25.088l73.728 66.15c11.264 10.138 29.594 10.138 40.858 0s11.264-26.52 0-36.658l-30.72-27.546H790.63s11.367-.922 15.053-1.843c9.626-2.15 18.944-4.813 28.058-7.885C951.706 788.89 1024 684.339 1024 586.752c0-187.802-119.091-282.317-225.69-292.25zm-242.278 291.43h40.858c32.358 0 58.06-7.884 77.004-23.654 18.944-15.667 28.468-36.556 28.468-62.259 0-25.702-9.524-46.592-28.468-62.464s-44.646-23.654-77.004-23.654H492.646v261.837h63.386v-89.805zm-.205-125.337h40.96c13.824 0 24.371 3.789 31.54 11.06 7.27 7.475 10.751 16.895 10.751 28.569 0 11.366-3.584 20.685-10.854 27.853-7.27 7.27-17.715 10.854-31.54 10.854h-40.857v-78.336zm248.832-46.797h-63.18v261.837h63.18V413.798z"/></svg>